# xmcd
#
# Track frame offsets: 
#        150
#        16465
#        33133
#        50948
#        62743
#        78184
#        105782
#        120765
#        142323
#        159388
#        174967
#        202538
#        215955
#        228952
#        246968
#        264053
#        289804
#        307376
#
# Disc length: 4637 seconds
#
# Revision: 0
# Processed by: cddbd v1.5.2PL0 Copyright (c) Steve Scherf et al.
# Submitted via: ExactAudioCopy v1.0b3
#
DISCID=f1121b12
DTITLE=Various Artist - Mystic Trance Vol. 3 - CD 1
DYEAR=1900
DGENRE=
TTITLE0=Mario Lopez - The Final (Original Radio Cut)
TTITLE1=Scotty Feat. M.C. Sherlock - Insomnia 2006 (No Sleep Trance Mi
TTITLE1=x Edit)
TTITLE2=Joni Feat. Kate Smith - Undivided (Radio Edit)
TTITLE3=Carlos - The Silmarilla 2007 (Leon Bolier Radio Edit)
TTITLE4=Italobrothers - Moonlight Shadow (Radio Mix)
TTITLE5=Denga and Manus - Firefly (Southgate Rmx)
TTITLE6=Blank and Jones - Catch (Radio Mix)
TTITLE7=Gigi D'Agostino - The Rain (Gigi D'Agostino's Way)
TTITLE8=Trancedellic - Delicious Dreamer (TJ Mix Edit)
TTITLE9=Ray Burton and Titus - Secrets (Radio Edit)
TTITLE10=Cosmic Gate Feat. Roxanne Emery - A Day That Fades (Album Ver
TTITLE10=sion)
TTITLE11=Tunnel Allstars Feat. DJ Yanny - Flug Auf Dem Glücksdrachen (
TTITLE11=Radio Cut)
TTITLE12=4 Strings Feat. Tina Cousins - Curious (Sam G Radio Edit)
TTITLE13=Phalanx - Fields Of Dreams (Radio Cut)
TTITLE14=Sector One - Not Ashamed (Radio Mix)
TTITLE15=Marcus Layton - So Sick Of Me (Club Mix)
TTITLE16=Stephanie O' Hara - Bright Eyes (Trance Radio)
TTITLE17=Airwave - People Just Don't Care (Rmx)
EXTD=
EXTT0=
EXTT1=
EXTT2=
EXTT3=
EXTT4=
EXTT5=
EXTT6=
EXTT7=
EXTT8=
EXTT9=
EXTT10=
EXTT11=
EXTT12=
EXTT13=
EXTT14=
EXTT15=
EXTT16=
EXTT17=
PLAYORDER=
